<svg width="32" height="32" viewBox="0 0 32 32" fill="none" xmlns="http://www.w3.org/2000/svg">
<rect width="32" height="32" rx="16" fill="#3040D3"/>
<g opacity="0.2">
<path fill-rule="evenodd" clip-rule="evenodd" d="M17.2472 9.75071C17.4288 9.59931 17.6385 9.48517 17.8642 9.41481C18.0899 9.34444 18.3273 9.31924 18.5627 9.34064C18.7982 9.36203 19.0272 9.42961 19.2365 9.5395C19.4458 9.6494 19.6315 9.79946 19.7828 9.98111L23.7824 14.7811C23.9405 14.9618 24.0608 15.1722 24.1363 15.4C24.2118 15.6278 24.241 15.8685 24.2221 16.1077C24.2032 16.347 24.1367 16.5801 24.0265 16.7933C23.9162 17.0065 23.7644 17.1954 23.58 17.3491C23.3956 17.5028 23.1824 17.618 22.9528 17.688C22.7232 17.758 22.482 17.7814 22.2432 17.7568C22.0045 17.7322 21.773 17.6601 21.5626 17.5448C21.3521 17.4294 21.1668 17.2731 21.0176 17.0851L17.0168 12.2851C16.7114 11.9184 16.5641 11.4455 16.6073 10.9702C16.6505 10.495 16.8807 10.0563 17.2472 9.75071Z" fill="white"/>
<path fill-rule="evenodd" clip-rule="evenodd" d="M17.2472 22.1155C16.8807 21.8099 16.6505 21.3712 16.6073 20.896C16.5641 20.4207 16.7114 19.9478 17.0168 19.5811L21.0176 14.7811C21.327 14.4274 21.7625 14.2088 22.2309 14.1718C22.6994 14.1349 23.1637 14.2826 23.5247 14.5835C23.8857 14.8843 24.1147 15.3144 24.1629 15.7818C24.211 16.2492 24.0745 16.717 23.7824 17.0851L19.7828 21.8851C19.6315 22.0667 19.4458 22.2168 19.2365 22.3267C19.0272 22.4366 18.7982 22.5042 18.5627 22.5255C18.3273 22.5469 18.0899 22.5217 17.8642 22.4514C17.6385 22.381 17.4288 22.2669 17.2472 22.1155Z" fill="white"/>
<path fill-rule="evenodd" clip-rule="evenodd" d="M21.8 15.9331C21.8 16.4104 21.6104 16.8683 21.2728 17.2058C20.9352 17.5434 20.4774 17.7331 20 17.7331H10.4C9.92262 17.7331 9.46478 17.5434 9.12721 17.2058C8.78965 16.8683 8.60001 16.4104 8.60001 15.9331C8.60001 15.4557 8.78965 14.9978 9.12721 14.6603C9.46478 14.3227 9.92262 14.1331 10.4 14.1331H20C20.4774 14.1331 20.9352 14.3227 21.2728 14.6603C21.6104 14.9978 21.8 15.4557 21.8 15.9331Z" fill="white"/>
</g>
<path fill-rule="evenodd" clip-rule="evenodd" d="M16.2164 9.47221C16.3386 9.37041 16.4963 9.32132 16.6547 9.33572C16.8131 9.35012 16.9593 9.42684 17.0612 9.54901L21.0608 14.349C21.1582 14.4717 21.2037 14.6276 21.1876 14.7834C21.1716 14.9392 21.0952 15.0826 20.9749 15.1829C20.8546 15.2832 20.6998 15.3324 20.5436 15.3201C20.3875 15.3078 20.2423 15.2349 20.1392 15.117L16.1396 10.317C16.0378 10.1948 15.9887 10.0371 16.0031 9.87871C16.0175 9.72029 16.0942 9.57408 16.2164 9.47221Z" fill="white"/>
<path fill-rule="evenodd" clip-rule="evenodd" d="M16.2164 19.994C16.0942 19.8922 16.0175 19.7459 16.0031 19.5875C15.9887 19.4291 16.0378 19.2715 16.1396 19.1492L20.1392 14.3492C20.2423 14.2313 20.3875 14.1585 20.5436 14.1461C20.6998 14.1338 20.8546 14.1831 20.9749 14.2834C21.0952 14.3836 21.1716 14.527 21.1876 14.6828C21.2037 14.8386 21.1582 14.9945 21.0608 15.1172L17.0612 19.9172C16.9593 20.0394 16.8131 20.1161 16.6547 20.1305C16.4963 20.1449 16.3386 20.0958 16.2164 19.994Z" fill="white"/>
<path fill-rule="evenodd" clip-rule="evenodd" d="M21.2 14.7331C21.2 14.8922 21.1368 15.0448 21.0243 15.1573C20.9117 15.2698 20.7591 15.3331 20.6 15.3331H8.6C8.44087 15.3331 8.28826 15.2698 8.17574 15.1573C8.06321 15.0448 8 14.8922 8 14.7331C8 14.5739 8.06321 14.4213 8.17574 14.3088C8.28826 14.1963 8.44087 14.1331 8.6 14.1331H20.6C20.7591 14.1331 20.9117 14.1963 21.0243 14.3088C21.1368 14.4213 21.2 14.5739 21.2 14.7331Z" fill="white"/>
</svg>
